<svg width="26" height="27" viewBox="0 0 26 27" fill="none" xmlns="http://www.w3.org/2000/svg">
<path d="M10.332 8.33594V9.66894" stroke="#92929D" stroke-width="2" stroke-linecap="round" stroke-linejoin="round"/>
<path d="M15.668 8.33594V9.66894" stroke="#92929D" stroke-width="2" stroke-linecap="round" stroke-linejoin="round"/>
<path fill-rule="evenodd" clip-rule="evenodd" d="M9.781 22.333L12.057 24.609C12.1808 24.7329 12.3278 24.8312 12.4896 24.8983C12.6514 24.9653 12.8248 24.9999 13 24.9999C13.1752 24.9999 13.3486 24.9653 13.5104 24.8983C13.6722 24.8312 13.8192 24.7329 13.943 24.609L16.219 22.333H21C22.0609 22.333 23.0783 21.9116 23.8284 21.1614C24.5786 20.4113 25 19.3939 25 18.333V5C25 3.93913 24.5786 2.92172 23.8284 2.17157C23.0783 1.42143 22.0609 1 21 1H5C3.93913 1 2.92172 1.42143 2.17157 2.17157C1.42143 2.92172 1 3.93913 1 5V18.333C1 19.3939 1.42143 20.4113 2.17157 21.1614C2.92172 21.9116 3.93913 22.333 5 22.333H9.781Z" stroke="#92929D" stroke-width="2" stroke-linecap="round" stroke-linejoin="round"/>
<path d="M12.999 16.3349C11.2813 16.3455 9.6198 15.7228 8.33203 14.5859" stroke="#92929D" stroke-width="2" stroke-linecap="round" stroke-linejoin="round"/>
<path d="M17.667 14.5859C16.3792 15.7228 14.7178 16.3455 13 16.3349" stroke="#92929D" stroke-width="2" stroke-linecap="round" stroke-linejoin="round"/>
</svg>
