<svg xmlns="http://www.w3.org/2000/svg" width="26" height="26.142" viewBox="0 0 26 26.142"><path d="M8,6.5V7.833" transform="translate(2.333 1.833)" fill="none" stroke="#fff" stroke-linecap="round" stroke-linejoin="round" stroke-width="2"/><path d="M12,6.5V7.833" transform="translate(3.667 1.833)" fill="none" stroke="#fff" stroke-linecap="round" stroke-linejoin="round" stroke-width="2"/><path d="M9.781,22.333l2.276,2.276a1.333,1.333,0,0,0,1.886,0l2.276-2.276H21a4,4,0,0,0,4-4V5a4,4,0,0,0-4-4H5A4,4,0,0,0,1,5V18.333a4,4,0,0,0,4,4Z" fill="none" stroke="#fff" stroke-linecap="round" stroke-linejoin="round" stroke-width="2" fill-rule="evenodd"/><path d="M11.167,12.937A6.987,6.987,0,0,1,6.5,11.188" transform="translate(1.833 3.396)" fill="none" stroke="#fff" stroke-linecap="round" stroke-linejoin="round" stroke-width="2"/><path d="M14.667,11.188A6.987,6.987,0,0,1,10,12.937" transform="translate(3 3.396)" fill="none" stroke="#fff" stroke-linecap="round" stroke-linejoin="round" stroke-width="2"/></svg>