<svg width="26" height="27" viewBox="0 0 26 27" fill="none" xmlns="http://www.w3.org/2000/svg">
<g clip-path="url(#clip0_586_23)">
<path fill-rule="evenodd" clip-rule="evenodd" d="M23.456 8.2064L15.456 1.9834C14.7538 1.43718 13.8896 1.14062 13 1.14062C12.1104 1.14062 11.2462 1.43718 10.544 1.9834L2.544 8.2064C2.06328 8.58035 1.6743 9.05914 1.40672 9.60625C1.13914 10.1534 1.00003 10.7544 1 11.3634V21.1404C1 22.2013 1.42143 23.2187 2.17157 23.9688C2.92172 24.719 3.93913 25.1404 5 25.1404H21C22.0609 25.1404 23.0783 24.719 23.8284 23.9688C24.5786 23.2187 25 22.2013 25 21.1404V11.3634C25 10.7544 24.8609 10.1534 24.5933 9.60625C24.3257 9.05914 23.9367 8.58035 23.456 8.2064Z" stroke="#92929D" stroke-width="2"/>
<path d="M9 25.1404V17.2404C9.02801 16.835 9.21496 16.4569 9.52021 16.1886C9.82545 15.9202 10.2243 15.7833 10.63 15.8074H15.37C15.7762 15.7833 16.1755 15.9207 16.4808 16.1897C16.7861 16.4587 16.9727 16.8374 17 17.2434V25.1434" stroke="#92929D" stroke-width="2" stroke-linecap="round" stroke-linejoin="round"/>
</g>
<defs>
<clipPath id="clip0_586_23">
<rect width="26" height="26.141" fill="white"/>
</clipPath>
</defs>
</svg>
