<svg xmlns="http://www.w3.org/2000/svg" width="26" height="26.141" viewBox="0 0 26 26.141"><g transform="translate(0 0.141)"><path d="M23.456,8.066l-8-6.223a4,4,0,0,0-4.912,0l-8,6.223A4,4,0,0,0,1,11.223V21a4,4,0,0,0,4,4H21a4,4,0,0,0,4-4V11.223A4,4,0,0,0,23.456,8.066Z" fill="none" stroke="#fff" stroke-width="2" fill-rule="evenodd"/><path d="M7,21.333v-7.9A1.542,1.542,0,0,1,8.63,12H13.37A1.542,1.542,0,0,1,15,13.436v7.9" transform="translate(2 3.667)" fill="none" stroke="#fff" stroke-linecap="round" stroke-linejoin="round" stroke-width="2"/></g></svg>